<svg width="15" height="14" viewBox="0 0 15 14" fill="none" xmlns="http://www.w3.org/2000/svg">
<path d="M7.17277 0C5.95107 0 5.11702 0.922595 4.60441 1.74023C4.27744 2.26177 4.09664 2.69257 3.98136 2.9987C3.94214 2.99791 3.95122 2.99609 3.90715 2.99609C3.4354 2.99609 2.67296 3.03929 1.91886 3.32161C1.16476 3.60393 0.389771 4.17426 0.108317 5.16016C-0.251745 6.41997 0.349638 7.51837 0.976156 8.23503C1.36627 8.68127 1.72011 8.95905 1.98136 9.14583C1.89168 9.45104 1.78391 9.88348 1.74113 10.4688C1.67217 11.4122 1.81789 12.6347 2.7841 13.4427C3.26186 13.8422 3.83017 14 4.36157 14C5.74201 14 6.77884 13.2261 7.16756 12.9141C7.54971 13.2346 8.53858 14 9.92472 14C10.3989 14 10.8949 13.8942 11.3349 13.6087H11.3355C12.3495 12.949 12.5184 11.6866 12.5035 10.6816C12.493 9.97198 12.3989 9.45806 12.3329 9.14583C12.5748 8.95639 12.9369 8.65205 13.3499 8.1543C13.9579 7.42139 14.5635 6.35162 14.2398 5.16536C13.947 4.09295 12.9911 3.55023 12.1337 3.29036C11.4048 3.06941 10.762 3.03221 10.3733 3.02279C10.2618 2.72211 10.0813 2.28165 9.74178 1.74023C9.22913 0.922797 8.39487 0 7.17277 0ZM7.17277 1C7.87267 1 8.46326 1.58342 8.89478 2.27148C9.32629 2.95955 9.54386 3.6582 9.54386 3.6582C9.5761 3.76309 9.64195 3.85446 9.73125 3.91822C9.82054 3.98199 9.92833 4.01461 10.038 4.01107C10.038 4.01107 10.0692 4.00977 10.135 4.00977C10.3946 4.00977 11.1484 4.03676 11.8433 4.2474C12.5383 4.45803 13.1065 4.8088 13.2756 5.42839C13.472 6.14813 13.0901 6.90185 12.5803 7.51628C12.0706 8.1307 11.4957 8.53451 11.4957 8.53451C11.4123 8.59279 11.3487 8.67513 11.3133 8.77051C11.278 8.8659 11.2725 8.96981 11.2978 9.06836C11.2978 9.06836 11.4907 9.83103 11.5035 10.6966C11.5163 11.5622 11.3253 12.4219 10.79 12.7702C10.5407 12.9318 10.2544 13 9.92472 13C8.80234 13 7.5061 11.929 7.5061 11.929C7.41654 11.8491 7.30122 11.8041 7.18122 11.8022C7.06121 11.8003 6.94453 11.8416 6.85246 11.9186C6.85246 11.9186 5.45462 13 4.36157 13C4.01364 13 3.71227 12.9157 3.42537 12.6758C2.80661 12.1585 2.68133 11.3241 2.73853 10.5417C2.79572 9.75924 3.0328 9.12044 3.0328 9.12044C3.07375 9.01119 3.07521 8.89106 3.03693 8.78084C2.99864 8.67062 2.92302 8.57727 2.82316 8.51693C2.82316 8.51693 2.23924 8.16075 1.72876 7.57682C1.21828 6.9929 0.831968 6.26741 1.06991 5.4349C1.25045 4.80246 1.69814 4.47223 2.26912 4.25846C2.84011 4.0447 3.50522 3.99609 3.90715 3.99609C4.14231 3.99609 4.27433 4.00977 4.27433 4.00977C4.38915 4.02119 4.50438 3.99255 4.60049 3.92871C4.6966 3.86487 4.76768 3.76976 4.80168 3.65951C4.80168 3.65951 5.02051 2.95985 5.45207 2.27148C5.88363 1.58312 6.4738 1 7.17277 1ZM7.1604 4.99609C6.3074 4.99609 7.01782 7.32227 7.01782 7.32227C7.01782 7.32227 5.1574 5.90046 4.85506 6.74479C4.5524 7.58879 6.93058 7.60482 6.93058 7.60482C6.93058 7.60482 5.12325 9.0242 5.73592 9.57487C6.34825 10.1255 7.1604 7.7806 7.1604 7.7806C7.1604 7.7806 7.91085 10.1422 8.58618 9.57487C9.25985 9.00687 7.39152 7.60482 7.39152 7.60482C7.39152 7.60482 9.78206 7.58679 9.46639 6.74479C9.15139 5.90279 7.30363 7.32227 7.30363 7.32227C7.30363 7.32227 8.0134 4.99609 7.1604 4.99609Z" fill="#D7ADA5"/>
</svg>
